<?xml version="1.0" standalone="no"?><!DOCTYPE svg PUBLIC "-//W3C//DTD SVG 1.1//EN" "http://www.w3.org/Graphics/SVG/1.1/DTD/svg11.dtd"><svg t="1647781406535" class="icon" viewBox="0 0 1024 1024" version="1.1" xmlns="http://www.w3.org/2000/svg" p-id="6528" xmlns:xlink="http://www.w3.org/1999/xlink" width="200" height="200"><defs><style type="text/css"></style></defs><path d="M760.6 863.5H304.7c-37.2 0-59.4-20.8-67.4-64.7l-57.8-489.7 186.2 120.2 171.8-231.1 173.4 231.1 175-120.2L828 798.8c-7.2 40.1-30.2 64.7-67.4 64.7z" fill="#FFE4B3" p-id="6529"></path><path d="M726.1 857.8H270.2c-31.9 0-72.5-13.7-84.4-78.9-0.1-0.4-0.1-0.7-0.2-1.1l-57.8-489.7c-0.8-6.6 2.3-13.1 8-16.7 5.7-3.5 12.9-3.5 18.5 0.1L327 382.9l162.1-218.2c3.3-4.4 8.4-7 13.8-7s10.6 2.6 13.8 6.9l163.4 217.9 161.3-110.8c5.6-3.8 12.9-4.1 18.7-0.5 5.8 3.5 9 10.1 8.2 16.8l-57.8 489.7c0 0.3-0.1 0.7-0.2 1-4.3 23.9-13.5 42.9-27.3 56.6-14.6 14.7-34.3 22.5-56.9 22.5z m-506.3-84.6c8.2 44.1 30 50 50.3 50H726c27.3 0 44.2-16.8 50.3-50l53.3-451.4L686 420.4c-7.6 5.2-18 3.5-23.6-3.9L503 204 345 416.5c-5.4 7.3-15.6 9.1-23.2 4.2L166.4 320.4l53.4 452.8z" fill="#EFA716" p-id="6530"></path><path d="M495.8 706h-0.2c-6.4-0.1-12.2-3.7-15.2-9.4l-83.6-162.1c-4.4-8.5-1-18.9 7.4-23.3 8.5-4.4 18.9-1 23.3 7.4l68.7 133.1 72.7-133.5c4.6-8.4 15.1-11.5 23.4-6.9 8.4 4.6 11.5 15.1 6.9 23.4L511 697c-3.1 5.6-8.9 9-15.2 9z" fill="#EFA716" p-id="6531"></path></svg>